<svg width="176" height="31" viewBox="0 0 176 31" fill="none" xmlns="http://www.w3.org/2000/svg">
<path d="M20.076 30.366C19.796 30.366 19.614 30.226 19.53 29.946L18.144 25.452C18.088 25.34 18.018 25.284 17.934 25.284H6.846C6.762 25.284 6.692 25.34 6.636 25.452L5.25 29.946C5.166 30.226 4.984 30.366 4.704 30.366H0.503998C0.335998 30.366 0.209998 30.324 0.125998 30.24C0.0419977 30.128 0.0279977 29.974 0.0839977 29.778L9.198 1.386C9.282 1.106 9.464 0.965999 9.744 0.965999H14.994C15.274 0.965999 15.456 1.106 15.54 1.386L24.696 29.778C24.724 29.834 24.738 29.904 24.738 29.988C24.738 30.24 24.584 30.366 24.276 30.366H20.076ZM7.938 21.21C7.91 21.378 7.966 21.462 8.106 21.462H16.632C16.8 21.462 16.856 21.378 16.8 21.21L12.474 7.14C12.446 7.028 12.404 6.972 12.348 6.972C12.292 6.972 12.25 7.028 12.222 7.14L7.938 21.21ZM38.6164 8.652C39.5124 8.652 40.2964 8.834 40.9684 9.198C41.1924 9.31 41.2764 9.52 41.2204 9.828L40.5064 13.608C40.4784 13.944 40.2824 14.042 39.9184 13.902C39.4984 13.762 39.0084 13.692 38.4484 13.692C38.0844 13.692 37.8044 13.706 37.6084 13.734C36.4324 13.79 35.4524 14.21 34.6684 14.994C33.8844 15.75 33.4924 16.744 33.4924 17.976V29.862C33.4924 30.002 33.4364 30.128 33.3244 30.24C33.2404 30.324 33.1284 30.366 32.9884 30.366H29.1244C28.9844 30.366 28.8584 30.324 28.7464 30.24C28.6624 30.128 28.6204 30.002 28.6204 29.862V9.408C28.6204 9.268 28.6624 9.156 28.7464 9.072C28.8584 8.96 28.9844 8.904 29.1244 8.904H32.9884C33.1284 8.904 33.2404 8.96 33.3244 9.072C33.4364 9.156 33.4924 9.268 33.4924 9.408V11.298C33.4924 11.41 33.5064 11.48 33.5344 11.508C33.5904 11.508 33.6464 11.466 33.7024 11.382C34.8784 9.562 36.5164 8.652 38.6164 8.652ZM52.9472 30.702C50.7912 30.702 48.9292 30.156 47.3612 29.064C45.7932 27.944 44.7012 26.446 44.0852 24.57C43.6372 23.31 43.4132 21.63 43.4132 19.53C43.4132 17.514 43.6372 15.862 44.0852 14.574C44.6732 12.726 45.7512 11.27 47.3192 10.206C48.9152 9.114 50.7912 8.568 52.9472 8.568C55.1312 8.568 57.0352 9.114 58.6592 10.206C60.2832 11.298 61.3612 12.67 61.8932 14.322C62.0332 14.77 62.1312 15.218 62.1872 15.666V15.75C62.1872 16.03 62.0332 16.198 61.7252 16.254L57.9452 16.8H57.8612C57.6092 16.8 57.4412 16.66 57.3572 16.38C57.3572 16.24 57.3432 16.128 57.3152 16.044C57.2592 15.82 57.2032 15.624 57.1472 15.456C56.8952 14.672 56.3912 14.028 55.6352 13.524C54.8792 13.02 53.9832 12.768 52.9472 12.768C51.8832 12.768 50.9732 13.048 50.2172 13.608C49.4892 14.14 48.9992 14.882 48.7472 15.834C48.4672 16.73 48.3272 17.976 48.3272 19.572C48.3272 21.112 48.4532 22.358 48.7052 23.31C48.9852 24.29 49.4892 25.074 50.2172 25.662C50.9452 26.222 51.8552 26.502 52.9472 26.502C54.0112 26.502 54.9212 26.236 55.6772 25.704C56.4612 25.144 56.9652 24.402 57.1892 23.478C57.2172 23.422 57.2312 23.352 57.2312 23.268C57.2592 23.24 57.2732 23.198 57.2732 23.142C57.3572 22.806 57.5532 22.666 57.8612 22.722L61.6412 23.31C61.7812 23.338 61.8932 23.408 61.9772 23.52C62.0892 23.604 62.1312 23.73 62.1032 23.898C62.0192 24.346 61.9492 24.668 61.8932 24.864C61.3612 26.656 60.2832 28.084 58.6592 29.148C57.0352 30.184 55.1312 30.702 52.9472 30.702ZM76.6037 8.568C78.8717 8.568 80.6777 9.24 82.0217 10.584C83.3937 11.928 84.0797 13.762 84.0797 16.086V29.862C84.0797 30.002 84.0237 30.128 83.9117 30.24C83.8277 30.324 83.7157 30.366 83.5757 30.366H79.7117C79.5717 30.366 79.4457 30.324 79.3337 30.24C79.2497 30.128 79.2077 30.002 79.2077 29.862V17.094C79.2077 15.806 78.8437 14.77 78.1157 13.986C77.3877 13.174 76.4217 12.768 75.2177 12.768C74.0137 12.768 73.0337 13.16 72.2777 13.944C71.5497 14.728 71.1857 15.764 71.1857 17.052V29.862C71.1857 30.002 71.1297 30.128 71.0177 30.24C70.9337 30.324 70.8217 30.366 70.6817 30.366H66.8177C66.6777 30.366 66.5517 30.324 66.4397 30.24C66.3557 30.128 66.3137 30.002 66.3137 29.862V1.47C66.3137 1.33 66.3557 1.218 66.4397 1.134C66.5517 1.022 66.6777 0.965999 66.8177 0.965999H70.6817C70.8217 0.965999 70.9337 1.022 71.0177 1.134C71.1297 1.218 71.1857 1.33 71.1857 1.47V10.752C71.1857 10.836 71.2137 10.892 71.2697 10.92C71.3257 10.948 71.3677 10.92 71.3957 10.836C72.5437 9.324 74.2797 8.568 76.6037 8.568ZM91.9314 5.964C91.0634 5.964 90.3494 5.684 89.7894 5.124C89.2294 4.564 88.9494 3.85 88.9494 2.982C88.9494 2.114 89.2294 1.4 89.7894 0.840001C90.3494 0.28 91.0634 -9.53674e-07 91.9314 -9.53674e-07C92.7994 -9.53674e-07 93.5134 0.28 94.0734 0.840001C94.6334 1.4 94.9134 2.114 94.9134 2.982C94.9134 3.85 94.6334 4.564 94.0734 5.124C93.5134 5.684 92.7994 5.964 91.9314 5.964ZM89.9154 30.366C89.7754 30.366 89.6494 30.324 89.5374 30.24C89.4534 30.128 89.4114 30.002 89.4114 29.862V9.366C89.4114 9.226 89.4534 9.114 89.5374 9.03C89.6494 8.918 89.7754 8.862 89.9154 8.862H93.7794C93.9194 8.862 94.0314 8.918 94.1154 9.03C94.2274 9.114 94.2834 9.226 94.2834 9.366V29.862C94.2834 30.002 94.2274 30.128 94.1154 30.24C94.0314 30.324 93.9194 30.366 93.7794 30.366H89.9154ZM106.585 30.366C106.277 30.366 106.081 30.226 105.997 29.946L98.3525 1.512L98.3105 1.344C98.3105 1.092 98.4645 0.965999 98.7725 0.965999H102.889C103.197 0.965999 103.393 1.106 103.477 1.386L108.265 20.538C108.293 20.622 108.335 20.664 108.391 20.664C108.447 20.664 108.489 20.622 108.517 20.538L113.095 1.386C113.179 1.106 113.361 0.965999 113.641 0.965999H117.673C117.981 0.965999 118.177 1.106 118.261 1.386L123.133 20.58C123.161 20.664 123.203 20.706 123.259 20.706C123.315 20.706 123.357 20.664 123.385 20.58L128.089 1.386C128.173 1.106 128.369 0.965999 128.677 0.965999H132.583C132.975 0.965999 133.129 1.148 133.045 1.512L125.779 29.946C125.695 30.226 125.499 30.366 125.191 30.366H121.285C120.977 30.366 120.781 30.226 120.697 29.946L115.783 9.912C115.755 9.828 115.713 9.786 115.657 9.786C115.601 9.758 115.559 9.8 115.531 9.912L110.827 29.946C110.743 30.226 110.561 30.366 110.281 30.366H106.585ZM152.461 17.22C152.573 17.92 152.629 18.704 152.629 19.572L152.587 20.874C152.587 21.21 152.419 21.378 152.083 21.378H138.937C138.797 21.378 138.727 21.448 138.727 21.588C138.811 22.512 138.937 23.142 139.105 23.478C139.777 25.494 141.415 26.516 144.019 26.544C145.923 26.544 147.435 25.76 148.555 24.192C148.667 24.024 148.807 23.94 148.975 23.94C149.087 23.94 149.185 23.982 149.269 24.066L151.873 26.208C152.125 26.404 152.167 26.628 151.999 26.88C151.131 28.112 149.969 29.064 148.513 29.736C147.085 30.408 145.489 30.744 143.725 30.744C141.541 30.744 139.679 30.254 138.139 29.274C136.627 28.294 135.521 26.922 134.821 25.158C134.177 23.646 133.855 21.546 133.855 18.858C133.855 17.234 134.023 15.918 134.359 14.91C134.919 12.95 135.969 11.41 137.509 10.29C139.077 9.142 140.953 8.568 143.137 8.568C148.653 8.568 151.761 11.452 152.461 17.22ZM143.137 12.768C142.101 12.768 141.233 13.034 140.533 13.566C139.861 14.07 139.385 14.784 139.105 15.708C138.937 16.184 138.825 16.8 138.769 17.556C138.713 17.696 138.769 17.766 138.937 17.766H147.463C147.603 17.766 147.673 17.696 147.673 17.556C147.617 16.856 147.533 16.324 147.421 15.96C147.169 14.952 146.665 14.168 145.909 13.608C145.181 13.048 144.257 12.768 143.137 12.768ZM175.183 14.448C175.659 16.016 175.897 17.724 175.897 19.572C175.897 21.56 175.631 23.31 175.099 24.822C174.483 26.67 173.489 28.112 172.117 29.148C170.745 30.184 169.065 30.702 167.077 30.702C165.117 30.702 163.507 29.96 162.247 28.476C162.191 28.392 162.135 28.364 162.079 28.392C162.023 28.42 161.995 28.476 161.995 28.56V29.862C161.995 30.002 161.939 30.128 161.827 30.24C161.743 30.324 161.631 30.366 161.491 30.366H157.627C157.487 30.366 157.361 30.324 157.249 30.24C157.165 30.128 157.123 30.002 157.123 29.862V1.47C157.123 1.33 157.165 1.218 157.249 1.134C157.361 1.022 157.487 0.965999 157.627 0.965999H161.491C161.631 0.965999 161.743 1.022 161.827 1.134C161.939 1.218 161.995 1.33 161.995 1.47V10.584C161.995 10.668 162.023 10.724 162.079 10.752C162.135 10.78 162.191 10.766 162.247 10.71C163.451 9.282 165.047 8.568 167.035 8.568C169.107 8.568 170.815 9.086 172.159 10.122C173.531 11.158 174.539 12.6 175.183 14.448ZM169.891 24.486C170.563 23.31 170.899 21.7 170.899 19.656C170.899 17.472 170.479 15.764 169.639 14.532C168.883 13.356 167.763 12.768 166.279 12.768C164.907 12.768 163.857 13.384 163.129 14.616C162.429 15.764 162.079 17.43 162.079 19.614C162.079 21.77 162.401 23.394 163.045 24.486C163.773 25.83 164.865 26.502 166.321 26.502C167.105 26.502 167.805 26.334 168.421 25.998C169.037 25.634 169.527 25.13 169.891 24.486Z" fill="#2F2E2E"/>
</svg>
