<svg width="163" height="28" viewBox="0 0 163 28" fill="none" xmlns="http://www.w3.org/2000/svg">
<path d="M5.1 13.668H16.524V18.088H5.1V13.668ZM5.508 26.758H1.54972e-06V2.958H17.986V7.378H5.508V26.758ZM28.6272 27.03C27.1085 27.03 25.7485 26.7353 24.5472 26.146C23.3685 25.5567 22.4505 24.6613 21.7932 23.46C21.1359 22.236 20.8072 20.6833 20.8072 18.802V8.466H26.1112V18.02C26.1112 19.5387 26.4285 20.6607 27.0632 21.386C27.7205 22.0887 28.6385 22.44 29.8172 22.44C30.6332 22.44 31.3585 22.27 31.9932 21.93C32.6279 21.5673 33.1265 21.0233 33.4892 20.298C33.8519 19.55 34.0332 18.6207 34.0332 17.51V8.466H39.3372V26.758H34.3052V21.726L35.2232 23.188C34.6112 24.4573 33.7045 25.4207 32.5032 26.078C31.3245 26.7127 30.0325 27.03 28.6272 27.03ZM44.251 26.758V8.466H49.317V13.634L48.603 12.138C49.147 10.846 50.0197 9.87134 51.221 9.214C52.4223 8.534 53.8843 8.194 55.607 8.194V13.09C55.3803 13.0673 55.1763 13.056 54.995 13.056C54.8137 13.0333 54.621 13.022 54.417 13.022C52.9663 13.022 51.7877 13.4413 50.881 14.28C49.997 15.096 49.555 16.3767 49.555 18.122V26.758H44.251ZM69.912 8.194C71.3626 8.194 72.6546 8.48867 73.788 9.078C74.944 9.64467 75.8506 10.5287 76.508 11.73C77.1653 12.9087 77.494 14.4273 77.494 16.286V26.758H72.19V17.102C72.19 15.6287 71.8613 14.5407 71.204 13.838C70.5693 13.1353 69.6626 12.784 68.484 12.784C67.6453 12.784 66.886 12.9653 66.206 13.328C65.5486 13.668 65.0273 14.2007 64.642 14.926C64.2793 15.6513 64.098 16.5807 64.098 17.714V26.758H58.794V8.466H63.86V13.532L62.908 12.002C63.5653 10.778 64.506 9.83734 65.73 9.18C66.954 8.52267 68.348 8.194 69.912 8.194ZM82.3018 26.758V8.466H87.6058V26.758H82.3018ZM84.9538 5.916C83.9791 5.916 83.1858 5.63267 82.5738 5.066C81.9618 4.49934 81.6558 3.79667 81.6558 2.958C81.6558 2.11933 81.9618 1.41667 82.5738 0.850002C83.1858 0.283335 83.9791 1.19209e-06 84.9538 1.19209e-06C85.9284 1.19209e-06 86.7218 0.272002 87.3338 0.816003C87.9458 1.33734 88.2518 2.01734 88.2518 2.856C88.2518 3.74 87.9458 4.47667 87.3338 5.066C86.7444 5.63267 85.9511 5.916 84.9538 5.916ZM100.008 27.03C97.855 27.03 96.1777 26.486 94.9763 25.398C93.775 24.2873 93.1743 22.644 93.1743 20.468V4.42H98.4783V20.4C98.4783 21.1707 98.6823 21.7713 99.0903 22.202C99.4983 22.61 100.054 22.814 100.756 22.814C101.595 22.814 102.309 22.5873 102.898 22.134L104.326 25.874C103.782 26.2593 103.125 26.554 102.354 26.758C101.606 26.9393 100.824 27.03 100.008 27.03ZM90.3523 12.954V8.874H103.034V12.954H90.3523ZM115.022 27.03C113.503 27.03 112.143 26.7353 110.942 26.146C109.763 25.5567 108.845 24.6613 108.188 23.46C107.53 22.236 107.202 20.6833 107.202 18.802V8.466H112.506V18.02C112.506 19.5387 112.823 20.6607 113.458 21.386C114.115 22.0887 115.033 22.44 116.212 22.44C117.028 22.44 117.753 22.27 118.388 21.93C119.022 21.5673 119.521 21.0233 119.884 20.298C120.246 19.55 120.428 18.6207 120.428 17.51V8.466H125.732V26.758H120.7V21.726L121.618 23.188C121.006 24.4573 120.099 25.4207 118.898 26.078C117.719 26.7127 116.427 27.03 115.022 27.03ZM130.646 26.758V8.466H135.712V13.634L134.998 12.138C135.542 10.846 136.414 9.87134 137.616 9.214C138.817 8.534 140.279 8.194 142.002 8.194V13.09C141.775 13.0673 141.571 13.056 141.39 13.056C141.208 13.0333 141.016 13.022 140.812 13.022C139.361 13.022 138.182 13.4413 137.276 14.28C136.392 15.096 135.95 16.3767 135.95 18.122V26.758H130.646ZM154.1 27.03C152.015 27.03 150.179 26.622 148.592 25.806C147.028 24.99 145.816 23.8793 144.954 22.474C144.093 21.046 143.662 19.4253 143.662 17.612C143.662 15.776 144.082 14.1553 144.92 12.75C145.782 11.322 146.949 10.2113 148.422 9.418C149.896 8.602 151.562 8.194 153.42 8.194C155.211 8.194 156.82 8.57934 158.248 9.35C159.699 10.098 160.844 11.186 161.682 12.614C162.521 14.0193 162.94 15.708 162.94 17.68C162.94 17.884 162.929 18.122 162.906 18.394C162.884 18.6433 162.861 18.8813 162.838 19.108H147.98V16.014H160.05L158.01 16.932C158.01 15.98 157.818 15.1527 157.432 14.45C157.047 13.7473 156.514 13.2033 155.834 12.818C155.154 12.41 154.361 12.206 153.454 12.206C152.548 12.206 151.743 12.41 151.04 12.818C150.36 13.2033 149.828 13.7587 149.442 14.484C149.057 15.1867 148.864 16.0253 148.864 17V17.816C148.864 18.8133 149.08 19.6973 149.51 20.468C149.964 21.216 150.587 21.794 151.38 22.202C152.196 22.5873 153.148 22.78 154.236 22.78C155.211 22.78 156.061 22.6327 156.786 22.338C157.534 22.0433 158.214 21.6013 158.826 21.012L161.648 24.072C160.81 25.024 159.756 25.7607 158.486 26.282C157.217 26.7807 155.755 27.03 154.1 27.03Z" fill="#054C73"/>
</svg>
